<svg width="89" height="29" viewBox="0 0 89 29" fill="none" xmlns="http://www.w3.org/2000/svg">
<rect x="55.5" y="5.5" width="29" height="15" rx="2.5" stroke="#A7312A"/>
<path d="M66.465 13.765C66.665 13.555 66.895 13.46 67.155 13.48C67.425 13.49 67.615 13.595 67.725 13.795C67.815 13.975 67.745 14.195 67.515 14.455C67.285 14.715 66.795 15.15 66.045 15.76C65.905 15.88 65.775 15.995 65.655 16.105C65.545 16.205 65.46 16.285 65.4 16.345C65.34 16.405 65.315 16.44 65.325 16.45C65.375 16.5 65.78 16.59 66.54 16.72C67.26 16.83 67.895 17 68.445 17.23C68.995 17.45 69.27 17.66 69.27 17.86C69.27 17.95 69.16 18.05 68.94 18.16C68.8 18.23 68.675 18.27 68.565 18.28C68.455 18.28 68.255 18.255 67.965 18.205C67.535 18.125 67.31 18.035 67.29 17.935C67.27 17.825 66.95 17.69 66.33 17.53C66 17.45 65.755 17.395 65.595 17.365C65.445 17.335 65.295 17.315 65.145 17.305C64.995 17.295 64.88 17.33 64.8 17.41C64.72 17.48 64.645 17.56 64.575 17.65C64.515 17.74 64.435 17.89 64.335 18.1C64.155 18.44 63.96 18.73 63.75 18.97C63.54 19.21 63.37 19.33 63.24 19.33C62.91 19.33 62.675 19.145 62.535 18.775C62.395 18.395 62.375 17.87 62.475 17.2C62.535 16.6 62.625 16.16 62.745 15.88L62.91 15.49L63.255 15.88C63.405 16.06 63.515 16.17 63.585 16.21C63.665 16.24 63.78 16.24 63.93 16.21C64.22 16.16 64.48 16.045 64.71 15.865C64.94 15.685 65.22 15.365 65.55 14.905C65.99 14.325 66.295 13.945 66.465 13.765ZM63.72 16.975C63.66 16.975 63.58 16.955 63.48 16.915C63.38 16.875 63.305 16.89 63.255 16.96C63.215 17.03 63.195 17.16 63.195 17.35C63.195 17.55 63.22 17.66 63.27 17.68C63.33 17.69 63.435 17.615 63.585 17.455C63.815 17.205 63.88 17.05 63.78 16.99C63.77 16.98 63.75 16.975 63.72 16.975ZM64.155 6.985C64.525 6.675 65.005 6.645 65.595 6.895C65.955 7.075 66.16 7.245 66.21 7.405C66.27 7.555 66.175 7.73 65.925 7.93C65.815 8.03 65.705 8.18 65.595 8.38C65.525 8.52 65.495 8.615 65.505 8.665C65.515 8.715 65.585 8.795 65.715 8.905C65.805 8.975 65.865 9.055 65.895 9.145C65.935 9.235 65.94 9.315 65.91 9.385C65.88 9.445 65.825 9.475 65.745 9.475C65.645 9.475 65.26 9.705 64.59 10.165C63.93 10.625 63.6 10.895 63.6 10.975C63.6 11.045 63.66 11.125 63.78 11.215C63.91 11.295 64.015 11.33 64.095 11.32C64.145 11.32 64.25 11.25 64.41 11.11C64.51 11.03 64.565 10.97 64.575 10.93C64.595 10.88 64.585 10.825 64.545 10.765C64.445 10.665 64.42 10.59 64.47 10.54C64.53 10.48 64.815 10.47 65.325 10.51C65.835 10.54 66.18 10.59 66.36 10.66L66.75 10.81L66.51 11.02C66.35 11.16 66.22 11.23 66.12 11.23C65.81 11.23 65.655 11.525 65.655 12.115C65.655 12.475 65.69 12.655 65.76 12.655C65.83 12.655 65.865 12.625 65.865 12.565C65.865 12.505 66.01 12.47 66.3 12.46C66.6 12.44 66.81 12.455 66.93 12.505C67.05 12.555 67.11 12.625 67.11 12.715C67.11 12.785 66.83 12.96 66.27 13.24C65.71 13.52 65.2 13.74 64.74 13.9C64.29 14.06 63.88 14.285 63.51 14.575C63.15 14.865 62.62 15.375 61.92 16.105C61.03 17.065 60.555 17.555 60.495 17.575C60.435 17.595 60.375 17.555 60.315 17.455C60.225 17.305 60.11 17.265 59.97 17.335C59.84 17.405 59.61 17.625 59.28 17.995C58.96 18.365 58.725 18.6 58.575 18.7C58.435 18.8 58.33 18.815 58.26 18.745C58.19 18.675 58.235 18.485 58.395 18.175C58.555 17.865 58.75 17.59 58.98 17.35C59.49 16.8 60.13 15.515 60.9 13.495C61.22 12.625 61.43 12.09 61.53 11.89C61.64 11.68 61.69 11.33 61.68 10.84C61.66 10.49 61.66 10.275 61.68 10.195C61.71 10.115 61.785 10.05 61.905 10C62.005 9.96 62.065 9.915 62.085 9.865C62.115 9.805 62.115 9.7 62.085 9.55L62.055 9.205L62.37 9.505L62.67 9.805L63.165 9.37C63.485 9.07 63.725 8.795 63.885 8.545C63.965 8.415 64.035 8.275 64.095 8.125C64.165 7.975 64.205 7.86 64.215 7.78C64.235 7.69 64.23 7.64 64.2 7.63C64.02 7.63 63.67 7.785 63.15 8.095C62.63 8.405 62.295 8.65 62.145 8.83C62.015 8.99 61.815 9.14 61.545 9.28C61.285 9.41 61.06 9.44 60.87 9.37C60.6 9.26 60.455 9.14 60.435 9.01C60.465 8.93 60.525 8.88 60.615 8.86C60.885 8.86 61.445 8.615 62.295 8.125C62.805 7.825 63.185 7.605 63.435 7.465C63.695 7.325 63.935 7.165 64.155 6.985ZM63.315 11.56C63.305 11.44 63.275 11.34 63.225 11.26C63.165 11.18 63.095 11.16 63.015 11.2C62.935 11.24 62.895 11.315 62.895 11.425C62.895 11.535 62.845 11.66 62.745 11.8C62.645 11.94 62.615 12.03 62.655 12.07C62.705 12.12 62.825 12.07 63.015 11.92C63.215 11.77 63.315 11.65 63.315 11.56ZM64.635 12.49C64.755 12.16 64.75 12 64.62 12.01C64.59 12.02 64.54 12.045 64.47 12.085C64.34 12.175 64.225 12.36 64.125 12.64C64.025 12.91 64 13.08 64.05 13.15C64.1 13.18 64.16 13.17 64.23 13.12C64.31 13.06 64.39 12.975 64.47 12.865C64.55 12.745 64.605 12.62 64.635 12.49ZM62.415 12.88C62.355 12.76 62.305 12.685 62.265 12.655C62.225 12.625 62.18 12.635 62.13 12.685C62.08 12.725 61.99 12.84 61.86 13.03C61.63 13.36 61.33 14.005 60.96 14.965C60.59 15.915 60.435 16.43 60.495 16.51C60.535 16.53 60.83 16.315 61.38 15.865C62.47 14.975 63.105 14.47 63.285 14.35C63.305 14.33 63.27 14.14 63.18 13.78C63.12 13.56 63.065 13.41 63.015 13.33C62.965 13.25 62.885 13.2 62.775 13.18C62.615 13.13 62.495 13.03 62.415 12.88ZM64.005 13.675C64.075 13.675 64.13 13.645 64.17 13.585C64.22 13.525 64.19 13.495 64.08 13.495C63.97 13.495 63.915 13.525 63.915 13.585C63.915 13.645 63.945 13.675 64.005 13.675ZM77.8559 7.465C77.9759 7.345 78.3609 7.46 79.0109 7.81C79.2209 7.91 79.2709 8.095 79.1609 8.365C79.0509 8.625 78.7809 8.995 78.3509 9.475C77.9709 9.875 77.8009 10.115 77.8409 10.195C77.8909 10.265 78.0309 10.35 78.2609 10.45C78.4109 10.51 78.5059 10.57 78.5459 10.63C78.5959 10.69 78.6209 10.8 78.6209 10.96V11.335L79.2509 11.26C79.6809 11.21 80.0059 11.155 80.2259 11.095C80.4559 11.025 80.7509 11.045 81.1109 11.155C81.4309 11.255 81.6459 11.355 81.7559 11.455C81.8659 11.545 81.9009 11.66 81.8609 11.8C81.7609 12.08 81.2709 12.22 80.3909 12.22C80.0309 12.22 79.6759 12.27 79.3259 12.37C78.9859 12.46 78.7809 12.56 78.7109 12.67C78.6509 12.75 78.6359 12.91 78.6659 13.15C78.7259 13.65 78.7209 14.745 78.6509 16.435C78.6209 17.305 78.5909 17.85 78.5609 18.07C78.5309 18.29 78.4709 18.44 78.3809 18.52C78.1709 18.7 78.0359 18.69 77.9759 18.49C77.9559 18.37 77.9409 18.145 77.9309 17.815L77.8559 14.995C77.8359 13.655 77.8009 12.95 77.7509 12.88C77.7009 12.79 77.5359 12.79 77.2559 12.88C76.9759 12.96 76.7959 13.065 76.7159 13.195C76.6259 13.345 76.4709 13.76 76.2509 14.44C75.9709 15.34 75.7309 15.925 75.5309 16.195C75.3409 16.455 75.0309 16.62 74.6009 16.69C74.2909 16.74 74.0759 16.7 73.9559 16.57C73.8759 16.49 73.8409 16.425 73.8509 16.375C73.8609 16.315 73.9209 16.2 74.0309 16.03C74.1709 15.82 74.2559 15.76 74.2859 15.85C74.3359 16.11 74.4859 16.065 74.7359 15.715C75.0059 15.335 75.2059 14.885 75.3359 14.365C75.4559 13.865 75.4909 13.59 75.4409 13.54C75.4009 13.49 75.0609 13.62 74.4209 13.93C73.7809 14.24 73.4059 14.385 73.2959 14.365C73.2259 14.355 73.1009 14.24 72.9209 14.02C72.7409 13.79 72.6509 13.635 72.6509 13.555C72.6509 13.505 72.8309 13.395 73.1909 13.225C73.5309 13.055 73.8909 12.8 74.2709 12.46C74.6509 12.11 74.8409 11.86 74.8409 11.71C74.8509 11.56 74.9409 11.475 75.1109 11.455C75.2909 11.435 75.5959 11.19 76.0259 10.72C76.4359 10.29 76.8359 9.82 77.2259 9.31C77.6259 8.79 77.8009 8.51 77.7509 8.47C77.7209 8.42 77.5409 8.5 77.2109 8.71C76.4509 9.19 75.8409 9.49 75.3809 9.61C74.9309 9.72 74.5709 9.67 74.3009 9.46C74.1309 9.33 74.0659 9.25 74.1059 9.22C74.1759 9.15 74.5309 8.965 75.1709 8.665C75.8109 8.355 76.3509 8.11 76.7909 7.93C77.4709 7.67 77.8259 7.515 77.8559 7.465ZM76.1909 11.875C76.2909 11.945 76.3859 11.975 76.4759 11.965C76.5759 11.955 76.7659 11.905 77.0459 11.815L77.6909 11.59V11.155C77.6909 10.865 77.6509 10.68 77.5709 10.6C77.4909 10.52 77.4309 10.48 77.3909 10.48C77.3609 10.48 77.1109 10.675 76.6409 11.065C76.1809 11.445 75.9509 11.65 75.9509 11.68C75.9509 11.71 76.0309 11.775 76.1909 11.875ZM75.2909 12.295C75.2709 12.205 75.2209 12.16 75.1409 12.16C75.0609 12.16 74.9859 12.2 74.9159 12.28C74.8359 12.38 74.8059 12.45 74.8259 12.49C74.8559 12.51 74.9059 12.51 74.9759 12.49C75.0559 12.47 75.1309 12.44 75.2009 12.4C75.2709 12.36 75.3009 12.325 75.2909 12.295Z" fill="#A7312A"/>
<path d="M12.675 5.825C12.675 5.60833 12.8 5.49167 13.05 5.475C13.3 5.45833 13.6417 5.54167 14.075 5.725C14.475 5.89167 14.7333 6.05833 14.85 6.225C14.9833 6.39167 14.9833 6.58333 14.85 6.8C14.7167 7 14.4417 7.275 14.025 7.625C13.3583 8.15833 13.025 8.475 13.025 8.575C13.025 8.65833 12.7667 8.875 12.25 9.225C11.8 9.54167 11.55 9.76667 11.5 9.9C11.45 10.0333 11.575 10.15 11.875 10.25C12.1583 10.3667 12.3417 10.5083 12.425 10.675C12.525 10.8417 12.9667 11.1 13.75 11.45C14.5333 11.8 15.7 12.4833 17.25 13.5C18.6 14.35 19.4583 14.8833 19.825 15.1C20.1917 15.3167 20.6167 15.4917 21.1 15.625C21.6 15.775 22.0917 16.0167 22.575 16.35C23.0583 16.6667 23.3583 16.95 23.475 17.2C23.5917 17.4667 23.5667 17.7083 23.4 17.925C23.2167 18.0917 22.9083 18.25 22.475 18.4C22.0583 18.55 21.675 18.625 21.325 18.625C21.0583 18.625 20.575 18.4583 19.875 18.125C19.1917 17.7917 18.825 17.55 18.775 17.4C18.7083 17.25 18.425 17.0083 17.925 16.675C17.425 16.3417 16.95 15.9833 16.5 15.6C15.7833 14.9833 15.0917 14.4667 14.425 14.05C13.7583 13.6167 12.625 13 11.025 12.2C10.575 11.95 10.3333 11.7083 10.3 11.475C10.2667 11.225 10.1917 11.1 10.075 11.1C9.925 11.1 9.34167 11.5167 8.325 12.35C7.30833 13.1667 6.35833 13.9917 5.475 14.825C4.30833 15.925 3.45833 16.6083 2.925 16.875C2.40833 17.1417 1.98333 17.375 1.65 17.575C1.45 17.7083 1.30833 17.775 1.225 17.775C1.15833 17.775 1.09167 17.7167 1.025 17.6C0.891667 17.4167 0.958333 17.175 1.225 16.875C1.50833 16.5583 2.21667 15.9417 3.35 15.025C6.03333 12.825 8.25833 10.8583 10.025 9.125C11.7917 7.375 12.675 6.275 12.675 5.825ZM32.7348 3.65C32.8014 3.23333 32.9514 3.01667 33.1848 3C33.4181 2.98333 33.7181 3.16667 34.0848 3.55C34.3181 3.76667 34.4598 3.95833 34.5098 4.125C34.5598 4.29167 34.5764 4.6 34.5598 5.05L34.5098 6.1H35.1848C35.5514 6.1 35.8681 6.2 36.1348 6.4C36.4014 6.6 36.5348 6.81667 36.5348 7.05C36.5348 7.28333 36.4098 7.48333 36.1598 7.65C35.8764 7.8 35.2514 8.31667 34.2848 9.2C33.9848 9.48333 33.8014 9.71667 33.7348 9.9C33.6848 10.0667 33.6431 10.5333 33.6098 11.3C33.5764 12.3333 33.6014 12.85 33.6848 12.85C33.7848 12.85 34.4431 12.3833 35.6598 11.45C36.5431 10.8 37.0848 10.3583 37.2848 10.125C37.4848 9.89167 37.6681 9.53333 37.8348 9.05C38.0514 8.33333 38.2764 7.83333 38.5098 7.55C38.7431 7.25 39.0264 7.11667 39.3598 7.15C40.0264 7.21667 40.1264 7.65833 39.6598 8.475L39.3098 9.075H40.7598C41.6098 9.075 42.1598 9.16667 42.4098 9.35C42.6764 9.51667 43.0348 10.0417 43.4848 10.925C43.8014 11.525 43.9764 11.9417 44.0098 12.175C44.0598 12.3917 44.0681 12.825 44.0348 13.475C43.9181 14.725 43.6348 15.7583 43.1848 16.575C42.7348 17.3917 41.9014 18.3917 40.6848 19.575C40.0848 20.1583 39.6848 20.5167 39.4848 20.65C39.3014 20.7667 39.0848 20.8 38.8348 20.75C38.5014 20.7 38.0931 20.4917 37.6098 20.125C37.1431 19.7583 36.7014 19.3083 36.2848 18.775C35.9848 18.4417 35.8014 18.175 35.7348 17.975C35.6681 17.775 35.6264 17.45 35.6098 17C35.5931 16.2833 35.6348 15.8417 35.7348 15.675C35.8181 15.4583 36.0014 14.925 36.2848 14.075C36.5848 13.2083 36.7348 12.725 36.7348 12.625C36.7348 12.2583 36.3931 12.3667 35.7098 12.95C34.9931 13.5 34.4681 14.0833 34.1348 14.7C33.9848 15 33.8764 15.3417 33.8098 15.725C33.7431 16.0917 33.6931 16.7333 33.6598 17.65C33.6264 18.6167 33.5764 19.2583 33.5098 19.575C33.4598 19.8917 33.3681 20.125 33.2348 20.275C33.0181 20.525 32.9598 20.65 33.0598 20.65C33.2264 20.65 33.1264 20.75 32.7598 20.95C32.5598 21.0667 32.4014 21.125 32.2848 21.125C32.1014 21.1417 31.7098 20.9417 31.1098 20.525C30.6598 20.2417 30.3598 20.075 30.2098 20.025C30.0764 19.975 29.8681 20.0083 29.5848 20.125C29.3181 20.225 29.1264 20.2583 29.0098 20.225C28.9098 20.1917 28.7348 20.05 28.4848 19.8C28.1848 19.5 28.0764 19.2333 28.1598 19C28.2431 18.7667 28.6514 18.2667 29.3848 17.5C30.6681 16.15 31.4098 15.325 31.6098 15.025C31.8264 14.725 31.9598 14.35 32.0098 13.9C32.1764 12.2167 32.2014 11.35 32.0848 11.3C32.0348 11.2833 31.9264 11.3333 31.7598 11.45C31.5931 11.5833 31.3514 11.8667 31.0348 12.3C30.7181 12.7333 30.0181 13.35 28.9348 14.15C27.8514 14.95 27.2764 15.4333 27.2098 15.6C27.1431 15.7667 26.9848 15.85 26.7348 15.85C26.5014 15.85 26.2098 15.5333 25.8598 14.9C25.6098 14.4167 25.4764 14.125 25.4598 14.025C25.4431 13.9083 25.5181 13.7917 25.6848 13.675C25.9848 13.475 26.2681 13.225 26.5348 12.925C26.8181 12.625 26.9598 12.4167 26.9598 12.3C26.9598 12.1667 27.0098 12.0833 27.1098 12.05C27.2931 11.9667 27.8598 10.875 28.8098 8.775C29.7598 6.675 30.2348 5.45833 30.2348 5.125V4.625L30.6598 5.125C31.0264 5.54167 31.1681 6.08333 31.0848 6.75C31.0014 7.4 30.6681 8.33333 30.0848 9.55C30.0348 9.66667 30.0598 9.71667 30.1598 9.7C30.3264 9.63333 30.6098 9.425 31.0098 9.075C31.7431 8.425 32.1598 8 32.2598 7.8C32.3598 7.58333 32.4431 7.00833 32.5098 6.075C32.5931 4.875 32.6681 4.06667 32.7348 3.65ZM38.3348 8.95C38.3848 8.81667 38.4014 8.725 38.3848 8.675C38.3514 8.625 38.2764 8.675 38.1598 8.825C38.0931 8.95833 38.0848 9.05833 38.1348 9.125C38.2014 9.175 38.2681 9.11667 38.3348 8.95ZM41.7598 11.1C41.5931 10.8 41.4181 10.6333 41.2348 10.6C41.0681 10.5667 40.6431 10.625 39.9598 10.775C39.4764 10.875 39.0431 11.025 38.6598 11.225C38.2764 11.4083 38.0848 11.575 38.0848 11.725C38.0848 11.8083 38.2931 11.8833 38.7098 11.95C39.3264 12.05 39.6764 12.2417 39.7598 12.525C39.8431 12.8083 39.6848 13.2083 39.2848 13.725C38.8348 14.2917 38.6764 14.6917 38.8098 14.925C38.8431 14.9583 38.8931 14.975 38.9598 14.975C39.0931 14.975 39.2931 15.125 39.5598 15.425C39.8431 15.725 39.9848 15.95 39.9848 16.1C39.9848 16.2333 39.6598 16.525 39.0098 16.975C38.3764 17.425 37.8931 17.7 37.5598 17.8C37.2931 17.8833 37.0764 17.9667 36.9098 18.05C36.7931 18.1333 36.7348 18.2 36.7348 18.25C36.7348 18.3 36.7931 18.35 36.9098 18.4C37.0598 18.5167 37.3348 18.6333 37.7348 18.75C38.1348 18.8667 38.4431 18.925 38.6598 18.925C38.8764 18.925 39.1098 18.8667 39.3598 18.75C39.5431 18.6333 39.8348 18.3833 40.2348 18C40.6348 17.6167 40.8348 17.3833 40.8348 17.3C40.8348 17.25 40.9598 17.0167 41.2098 16.6C41.7098 15.7667 42.0181 14.8 42.1348 13.7C42.2514 12.5833 42.1264 11.7167 41.7598 11.1ZM38.4348 13.075C38.4348 12.9083 38.3931 12.8167 38.3098 12.8C38.2431 12.7833 38.1014 12.8333 37.8848 12.95C37.6848 13.05 37.4848 13.075 37.2848 13.025C37.1514 12.9917 37.0514 13.0167 36.9848 13.1C36.9181 13.1667 36.8431 13.3333 36.7598 13.6C36.6098 14.1 36.4764 14.8 36.3598 15.7C36.2431 16.6 36.2181 17.125 36.2848 17.275C36.4348 17.7083 36.6598 17.6833 36.9598 17.2C37.1431 16.9333 37.1764 16.525 37.0598 15.975C36.9598 15.575 36.9348 15.3 36.9848 15.15C37.0514 15 37.2764 14.7 37.6598 14.25C38.1764 13.6667 38.4348 13.275 38.4348 13.075Z" fill="black"/>
</svg>
