<svg width="89" height="29" viewBox="0 0 89 29" fill="none" xmlns="http://www.w3.org/2000/svg">
<rect x="55.5" y="5.5" width="29" height="15" rx="2.5" stroke="#A7312A"/>
<path d="M64.05 7.6C64.45 7.51 64.755 7.595 64.965 7.855C65.325 8.265 65.16 9.075 64.47 10.285C64.23 10.705 64.11 10.935 64.11 10.975C64.11 11.105 64.52 10.96 65.34 10.54C65.94 10.23 66.4 10.075 66.72 10.075C67.31 10.075 67.655 10.195 67.755 10.435C67.805 10.595 67.77 10.73 67.65 10.84C67.54 10.95 67.33 11.04 67.02 11.11C66.62 11.19 66.24 11.315 65.88 11.485C65.52 11.655 65.315 11.74 65.265 11.74C65.215 11.74 65.11 11.805 64.95 11.935C64.65 12.175 64.725 12.39 65.175 12.58C65.365 12.66 65.525 12.78 65.655 12.94C65.795 13.09 65.865 13.235 65.865 13.375C65.865 13.475 65.78 13.73 65.61 14.14C65.44 14.55 65.355 14.795 65.355 14.875C65.355 14.955 65.56 15.125 65.97 15.385L67.425 16.345C67.835 16.615 68.185 16.81 68.475 16.93C68.765 17.05 69.16 17.165 69.66 17.275C70.05 17.355 70.31 17.44 70.44 17.53C70.53 17.59 70.57 17.63 70.56 17.65C70.55 17.67 70.47 17.7 70.32 17.74C69.69 17.89 69.18 18.04 68.79 18.19C68.52 18.3 68.115 18.255 67.575 18.055C67.035 17.855 66.565 17.57 66.165 17.2C65.955 17.02 65.67 16.815 65.31 16.585C64.96 16.355 64.74 16.24 64.65 16.24C64.53 16.24 64.385 16.31 64.215 16.45C64.045 16.58 63.935 16.645 63.885 16.645C63.845 16.645 63.61 16.765 63.18 17.005C62.88 17.185 62.655 17.295 62.505 17.335C62.365 17.365 62.115 17.37 61.755 17.35L60.99 17.32L60.915 17.755C60.885 18.025 60.82 18.22 60.72 18.34C60.62 18.45 60.49 18.495 60.33 18.475C60.18 18.465 60.04 18.37 59.91 18.19C59.79 18 59.705 17.785 59.655 17.545C59.625 17.335 59.455 16.95 59.145 16.39C58.925 15.98 58.92 15.82 59.13 15.91C59.15 15.92 59.17 15.93 59.19 15.94C59.43 16.07 59.58 15.99 59.64 15.7C59.66 15.53 59.67 15.25 59.67 14.86C59.65 14.21 59.615 13.885 59.565 13.885C59.515 13.885 59.42 14.015 59.28 14.275C59.11 14.605 58.87 14.99 58.56 15.43C58.44 15.6 58.34 15.84 58.26 16.15C58.16 16.54 58.02 16.795 57.84 16.915C57.67 17.025 57.505 16.99 57.345 16.81C57.185 16.62 57.07 16.315 57 15.895C56.92 15.435 56.925 15.135 57.015 14.995C57.155 14.765 57.36 14.15 57.63 13.15C57.91 12.15 58.05 11.505 58.05 11.215C58.05 11.005 58.065 10.9 58.095 10.9C58.235 10.91 58.435 10.98 58.695 11.11C58.965 11.23 59.135 11.335 59.205 11.425C59.295 11.545 59.335 11.655 59.325 11.755C59.315 11.845 59.235 12.085 59.085 12.475C58.825 13.155 58.74 13.49 58.83 13.48C58.89 13.48 59.04 13.35 59.28 13.09L59.76 12.58V10.09C59.75 8.93 59.755 8.23 59.775 7.99C59.805 7.74 59.86 7.615 59.94 7.615C60.07 7.615 60.265 7.685 60.525 7.825C60.795 7.965 60.93 8.075 60.93 8.155C60.94 8.245 60.96 8.475 60.99 8.845C61.06 9.995 61.12 10.6 61.17 10.66C61.22 10.71 61.295 10.69 61.395 10.6C61.555 10.47 61.63 10.47 61.62 10.6C61.6 10.78 61.47 11 61.23 11.26C61.14 11.37 61.08 11.56 61.05 11.83C61.02 12.1 60.995 12.75 60.975 13.78C60.935 15.2 60.915 16.06 60.915 16.36C60.925 16.66 60.965 16.845 61.035 16.915C61.115 16.995 61.32 16.925 61.65 16.705C61.99 16.485 62.4 16.15 62.88 15.7L63.42 15.22L62.955 14.71C62.645 14.38 62.445 14.075 62.355 13.795C62.275 13.515 62.19 13.375 62.1 13.375C61.93 13.375 61.8 13.14 61.71 12.67C61.68 12.47 61.705 12.315 61.785 12.205C61.875 12.095 62.015 12.04 62.205 12.04C62.305 12.03 62.42 11.925 62.55 11.725C62.68 11.515 62.9 11.1 63.21 10.48C63.74 9.43 64.03 8.79 64.08 8.56C64.11 8.38 64.11 8.28 64.08 8.26C64.06 8.23 63.97 8.23 63.81 8.26C63.61 8.31 63.51 8.31 63.51 8.26C63.51 8.17 63.575 8.04 63.705 7.87C63.845 7.7 63.96 7.61 64.05 7.6ZM64.365 13.015C64.215 12.735 64.08 12.59 63.96 12.58C63.82 12.56 63.62 12.625 63.36 12.775C63.1 12.915 62.92 13.06 62.82 13.21C62.72 13.35 62.675 13.44 62.685 13.48C62.695 13.51 62.745 13.56 62.835 13.63C63.025 13.79 63.27 13.94 63.57 14.08C63.88 14.21 64.07 14.26 64.14 14.23C64.25 14.19 64.355 14.05 64.455 13.81C64.525 13.62 64.555 13.49 64.545 13.42C64.545 13.34 64.485 13.205 64.365 13.015ZM79.3109 8.395C79.5009 8.235 79.6959 8.175 79.8959 8.215C80.1059 8.255 80.3059 8.275 80.4959 8.275C81.0259 8.275 81.1009 8.645 80.7209 9.385C80.6309 9.575 80.5059 9.795 80.3459 10.045C80.1059 10.385 79.9859 10.585 79.9859 10.645C79.9859 10.705 80.1809 10.76 80.5709 10.81C80.9709 10.85 81.2159 10.945 81.3059 11.095C81.3959 11.235 81.4109 11.315 81.3509 11.335C81.2909 11.355 80.9009 11.55 80.1809 11.92L79.1009 12.475L79.1309 13.165C79.1409 13.625 79.1659 13.875 79.2059 13.915C79.2459 13.955 79.4959 13.91 79.9559 13.78C80.3359 13.68 80.5759 13.63 80.6759 13.63C80.7859 13.62 80.9959 13.65 81.3059 13.72C81.5159 13.76 81.6759 13.82 81.7859 13.9C81.8959 13.98 81.9309 14.065 81.8909 14.155C81.8709 14.225 81.6059 14.335 81.0959 14.485C79.8759 14.865 79.2209 15.135 79.1309 15.295C79.0709 15.415 78.8409 15.475 78.4409 15.475C78.1209 15.475 77.9009 15.44 77.7809 15.37C77.6709 15.29 77.6159 15.145 77.6159 14.935C77.6159 14.755 77.7309 14.595 77.9609 14.455C78.4009 14.205 78.5109 13.605 78.2909 12.655C78.1709 12.195 78.1359 11.8 78.1859 11.47C78.2359 11.14 78.2359 10.855 78.1859 10.615C78.1359 10.365 78.0509 10.22 77.9309 10.18C77.8209 10.14 77.7209 10.055 77.6309 9.925C77.5609 9.815 77.5309 9.74 77.5409 9.7C77.5609 9.65 77.6259 9.575 77.7359 9.475C77.9059 9.335 78.0509 9.17 78.1709 8.98C78.2909 8.78 78.3859 8.715 78.4559 8.785C78.5759 8.895 78.8609 8.765 79.3109 8.395ZM73.8209 7.06C74.4009 7.22 74.7859 7.5 74.9759 7.9C75.0459 8.06 75.1109 8.165 75.1709 8.215C75.2409 8.255 75.3559 8.275 75.5159 8.275C75.7459 8.275 75.9259 8.38 76.0559 8.59C76.1959 8.79 76.2659 8.905 76.2659 8.935C76.2659 8.965 76.0659 9.125 75.6659 9.415C75.3659 9.615 75.1859 9.755 75.1259 9.835C75.0759 9.915 75.0509 10.065 75.0509 10.285C75.0509 10.595 75.0709 10.855 75.1109 11.065C75.1609 11.265 75.2259 11.365 75.3059 11.365C75.3959 11.365 75.5459 11.28 75.7559 11.11C75.9359 10.95 76.1959 10.86 76.5359 10.84C76.8859 10.82 77.1009 10.885 77.1809 11.035C77.2409 11.125 77.2409 11.22 77.1809 11.32C77.1309 11.42 77.0509 11.47 76.9409 11.47C76.8009 11.47 76.4159 11.855 75.7859 12.625C75.1559 13.385 74.8409 13.84 74.8409 13.99C74.8409 14.13 75.1259 14.105 75.6959 13.915C75.9559 13.835 76.2709 13.855 76.6409 13.975C77.0109 14.095 77.1959 14.245 77.1959 14.425C77.1959 14.515 77.0959 14.73 76.8959 15.07C76.6959 15.4 76.4659 15.74 76.2059 16.09C75.9859 16.38 75.8909 16.55 75.9209 16.6C75.9609 16.65 76.3059 16.7 76.9559 16.75C77.8559 16.81 78.9109 16.965 80.1209 17.215C81.3309 17.455 82.1559 17.685 82.5959 17.905C83.0359 18.125 83.3459 18.315 83.5259 18.475C83.7159 18.635 83.7859 18.78 83.7359 18.91C83.6859 19.04 83.5309 19.08 83.2709 19.03C83.0209 18.98 82.5959 18.825 81.9959 18.565C81.4059 18.305 80.9859 18.13 80.7359 18.04C80.4859 17.95 80.0259 17.805 79.3559 17.605C78.3459 17.325 77.0309 17.335 75.4109 17.635C74.5809 17.795 74.0509 17.875 73.8209 17.875L73.4609 17.89L73.4759 17.335C73.4959 16.955 73.5209 16.75 73.5509 16.72C73.5809 16.69 73.7559 16.635 74.0759 16.555C74.2959 16.505 74.4659 16.435 74.5859 16.345C74.7059 16.245 74.8809 16.06 75.1109 15.79C75.5209 15.29 75.7009 14.995 75.6509 14.905C75.6009 14.815 75.3109 14.885 74.7809 15.115C74.4009 15.275 74.2109 15.39 74.2109 15.46C74.2109 15.53 74.1509 15.58 74.0309 15.61C73.9109 15.64 73.8259 15.63 73.7759 15.58C73.7059 15.51 73.6309 15.315 73.5509 14.995C73.4809 14.725 73.4609 14.545 73.4909 14.455C73.5309 14.355 73.6809 14.135 73.9409 13.795C74.0909 13.615 74.1509 13.505 74.1209 13.465C74.0909 13.445 73.8709 13.565 73.4609 13.825C73.0609 14.075 72.6759 14.335 72.3059 14.605C71.7359 15.025 71.2909 15.125 70.9709 14.905C70.8009 14.785 70.7309 14.695 70.7609 14.635C70.7909 14.565 70.9309 14.47 71.1809 14.35C71.4909 14.22 72.3759 13.65 73.8359 12.64C74.0559 12.49 74.1759 12.335 74.1959 12.175C74.2259 12.015 74.1609 11.87 74.0009 11.74L73.7159 11.545L73.9259 11.275C74.0559 11.105 74.1209 10.935 74.1209 10.765C74.1209 10.645 74.1059 10.58 74.0759 10.57C74.0459 10.55 73.9659 10.55 73.8359 10.57C73.6459 10.62 73.4559 10.615 73.2659 10.555C73.1259 10.525 72.9409 10.42 72.7109 10.24C72.4809 10.05 72.3659 9.92 72.3659 9.85C72.3659 9.79 72.4859 9.72 72.7259 9.64C72.9659 9.56 73.2459 9.375 73.5659 9.085C73.7959 8.885 73.9309 8.74 73.9709 8.65C74.0109 8.56 74.0209 8.415 74.0009 8.215C73.9609 7.925 73.8659 7.69 73.7159 7.51C73.5759 7.32 73.5059 7.18 73.5059 7.09C73.5059 7 73.6109 6.99 73.8209 7.06Z" fill="#A7312A"/>
<path d="M12.675 5.825C12.675 5.60833 12.8 5.49167 13.05 5.475C13.3 5.45833 13.6417 5.54167 14.075 5.725C14.475 5.89167 14.7333 6.05833 14.85 6.225C14.9833 6.39167 14.9833 6.58333 14.85 6.8C14.7167 7 14.4417 7.275 14.025 7.625C13.3583 8.15833 13.025 8.475 13.025 8.575C13.025 8.65833 12.7667 8.875 12.25 9.225C11.8 9.54167 11.55 9.76667 11.5 9.9C11.45 10.0333 11.575 10.15 11.875 10.25C12.1583 10.3667 12.3417 10.5083 12.425 10.675C12.525 10.8417 12.9667 11.1 13.75 11.45C14.5333 11.8 15.7 12.4833 17.25 13.5C18.6 14.35 19.4583 14.8833 19.825 15.1C20.1917 15.3167 20.6167 15.4917 21.1 15.625C21.6 15.775 22.0917 16.0167 22.575 16.35C23.0583 16.6667 23.3583 16.95 23.475 17.2C23.5917 17.4667 23.5667 17.7083 23.4 17.925C23.2167 18.0917 22.9083 18.25 22.475 18.4C22.0583 18.55 21.675 18.625 21.325 18.625C21.0583 18.625 20.575 18.4583 19.875 18.125C19.1917 17.7917 18.825 17.55 18.775 17.4C18.7083 17.25 18.425 17.0083 17.925 16.675C17.425 16.3417 16.95 15.9833 16.5 15.6C15.7833 14.9833 15.0917 14.4667 14.425 14.05C13.7583 13.6167 12.625 13 11.025 12.2C10.575 11.95 10.3333 11.7083 10.3 11.475C10.2667 11.225 10.1917 11.1 10.075 11.1C9.925 11.1 9.34167 11.5167 8.325 12.35C7.30833 13.1667 6.35833 13.9917 5.475 14.825C4.30833 15.925 3.45833 16.6083 2.925 16.875C2.40833 17.1417 1.98333 17.375 1.65 17.575C1.45 17.7083 1.30833 17.775 1.225 17.775C1.15833 17.775 1.09167 17.7167 1.025 17.6C0.891667 17.4167 0.958333 17.175 1.225 16.875C1.50833 16.5583 2.21667 15.9417 3.35 15.025C6.03333 12.825 8.25833 10.8583 10.025 9.125C11.7917 7.375 12.675 6.275 12.675 5.825ZM32.7348 3.65C32.8014 3.23333 32.9514 3.01667 33.1848 3C33.4181 2.98333 33.7181 3.16667 34.0848 3.55C34.3181 3.76667 34.4598 3.95833 34.5098 4.125C34.5598 4.29167 34.5764 4.6 34.5598 5.05L34.5098 6.1H35.1848C35.5514 6.1 35.8681 6.2 36.1348 6.4C36.4014 6.6 36.5348 6.81667 36.5348 7.05C36.5348 7.28333 36.4098 7.48333 36.1598 7.65C35.8764 7.8 35.2514 8.31667 34.2848 9.2C33.9848 9.48333 33.8014 9.71667 33.7348 9.9C33.6848 10.0667 33.6431 10.5333 33.6098 11.3C33.5764 12.3333 33.6014 12.85 33.6848 12.85C33.7848 12.85 34.4431 12.3833 35.6598 11.45C36.5431 10.8 37.0848 10.3583 37.2848 10.125C37.4848 9.89167 37.6681 9.53333 37.8348 9.05C38.0514 8.33333 38.2764 7.83333 38.5098 7.55C38.7431 7.25 39.0264 7.11667 39.3598 7.15C40.0264 7.21667 40.1264 7.65833 39.6598 8.475L39.3098 9.075H40.7598C41.6098 9.075 42.1598 9.16667 42.4098 9.35C42.6764 9.51667 43.0348 10.0417 43.4848 10.925C43.8014 11.525 43.9764 11.9417 44.0098 12.175C44.0598 12.3917 44.0681 12.825 44.0348 13.475C43.9181 14.725 43.6348 15.7583 43.1848 16.575C42.7348 17.3917 41.9014 18.3917 40.6848 19.575C40.0848 20.1583 39.6848 20.5167 39.4848 20.65C39.3014 20.7667 39.0848 20.8 38.8348 20.75C38.5014 20.7 38.0931 20.4917 37.6098 20.125C37.1431 19.7583 36.7014 19.3083 36.2848 18.775C35.9848 18.4417 35.8014 18.175 35.7348 17.975C35.6681 17.775 35.6264 17.45 35.6098 17C35.5931 16.2833 35.6348 15.8417 35.7348 15.675C35.8181 15.4583 36.0014 14.925 36.2848 14.075C36.5848 13.2083 36.7348 12.725 36.7348 12.625C36.7348 12.2583 36.3931 12.3667 35.7098 12.95C34.9931 13.5 34.4681 14.0833 34.1348 14.7C33.9848 15 33.8764 15.3417 33.8098 15.725C33.7431 16.0917 33.6931 16.7333 33.6598 17.65C33.6264 18.6167 33.5764 19.2583 33.5098 19.575C33.4598 19.8917 33.3681 20.125 33.2348 20.275C33.0181 20.525 32.9598 20.65 33.0598 20.65C33.2264 20.65 33.1264 20.75 32.7598 20.95C32.5598 21.0667 32.4014 21.125 32.2848 21.125C32.1014 21.1417 31.7098 20.9417 31.1098 20.525C30.6598 20.2417 30.3598 20.075 30.2098 20.025C30.0764 19.975 29.8681 20.0083 29.5848 20.125C29.3181 20.225 29.1264 20.2583 29.0098 20.225C28.9098 20.1917 28.7348 20.05 28.4848 19.8C28.1848 19.5 28.0764 19.2333 28.1598 19C28.2431 18.7667 28.6514 18.2667 29.3848 17.5C30.6681 16.15 31.4098 15.325 31.6098 15.025C31.8264 14.725 31.9598 14.35 32.0098 13.9C32.1764 12.2167 32.2014 11.35 32.0848 11.3C32.0348 11.2833 31.9264 11.3333 31.7598 11.45C31.5931 11.5833 31.3514 11.8667 31.0348 12.3C30.7181 12.7333 30.0181 13.35 28.9348 14.15C27.8514 14.95 27.2764 15.4333 27.2098 15.6C27.1431 15.7667 26.9848 15.85 26.7348 15.85C26.5014 15.85 26.2098 15.5333 25.8598 14.9C25.6098 14.4167 25.4764 14.125 25.4598 14.025C25.4431 13.9083 25.5181 13.7917 25.6848 13.675C25.9848 13.475 26.2681 13.225 26.5348 12.925C26.8181 12.625 26.9598 12.4167 26.9598 12.3C26.9598 12.1667 27.0098 12.0833 27.1098 12.05C27.2931 11.9667 27.8598 10.875 28.8098 8.775C29.7598 6.675 30.2348 5.45833 30.2348 5.125V4.625L30.6598 5.125C31.0264 5.54167 31.1681 6.08333 31.0848 6.75C31.0014 7.4 30.6681 8.33333 30.0848 9.55C30.0348 9.66667 30.0598 9.71667 30.1598 9.7C30.3264 9.63333 30.6098 9.425 31.0098 9.075C31.7431 8.425 32.1598 8 32.2598 7.8C32.3598 7.58333 32.4431 7.00833 32.5098 6.075C32.5931 4.875 32.6681 4.06667 32.7348 3.65ZM38.3348 8.95C38.3848 8.81667 38.4014 8.725 38.3848 8.675C38.3514 8.625 38.2764 8.675 38.1598 8.825C38.0931 8.95833 38.0848 9.05833 38.1348 9.125C38.2014 9.175 38.2681 9.11667 38.3348 8.95ZM41.7598 11.1C41.5931 10.8 41.4181 10.6333 41.2348 10.6C41.0681 10.5667 40.6431 10.625 39.9598 10.775C39.4764 10.875 39.0431 11.025 38.6598 11.225C38.2764 11.4083 38.0848 11.575 38.0848 11.725C38.0848 11.8083 38.2931 11.8833 38.7098 11.95C39.3264 12.05 39.6764 12.2417 39.7598 12.525C39.8431 12.8083 39.6848 13.2083 39.2848 13.725C38.8348 14.2917 38.6764 14.6917 38.8098 14.925C38.8431 14.9583 38.8931 14.975 38.9598 14.975C39.0931 14.975 39.2931 15.125 39.5598 15.425C39.8431 15.725 39.9848 15.95 39.9848 16.1C39.9848 16.2333 39.6598 16.525 39.0098 16.975C38.3764 17.425 37.8931 17.7 37.5598 17.8C37.2931 17.8833 37.0764 17.9667 36.9098 18.05C36.7931 18.1333 36.7348 18.2 36.7348 18.25C36.7348 18.3 36.7931 18.35 36.9098 18.4C37.0598 18.5167 37.3348 18.6333 37.7348 18.75C38.1348 18.8667 38.4431 18.925 38.6598 18.925C38.8764 18.925 39.1098 18.8667 39.3598 18.75C39.5431 18.6333 39.8348 18.3833 40.2348 18C40.6348 17.6167 40.8348 17.3833 40.8348 17.3C40.8348 17.25 40.9598 17.0167 41.2098 16.6C41.7098 15.7667 42.0181 14.8 42.1348 13.7C42.2514 12.5833 42.1264 11.7167 41.7598 11.1ZM38.4348 13.075C38.4348 12.9083 38.3931 12.8167 38.3098 12.8C38.2431 12.7833 38.1014 12.8333 37.8848 12.95C37.6848 13.05 37.4848 13.075 37.2848 13.025C37.1514 12.9917 37.0514 13.0167 36.9848 13.1C36.9181 13.1667 36.8431 13.3333 36.7598 13.6C36.6098 14.1 36.4764 14.8 36.3598 15.7C36.2431 16.6 36.2181 17.125 36.2848 17.275C36.4348 17.7083 36.6598 17.6833 36.9598 17.2C37.1431 16.9333 37.1764 16.525 37.0598 15.975C36.9598 15.575 36.9348 15.3 36.9848 15.15C37.0514 15 37.2764 14.7 37.6598 14.25C38.1764 13.6667 38.4348 13.275 38.4348 13.075Z" fill="black"/>
</svg>
